Coordinates
version=1
nRows=8
nColumns=36
inDegrees=yes

Units are S.I. units (second, meters, Newtons, ...)
If the header above contains a line with 'inDegrees', this indicates whether rotational values are in degrees (yes) or radians (no).

endheader
time	pelvis_tilt	pelvis_list	pelvis_rotation	pelvis_tx	pelvis_ty	pelvis_tz	hip_flexion_r	hip_adduction_r	hip_rotation_r	knee_angle_r	knee_angle_r_beta	ankle_angle_r	subtalar_angle_r	mtp_angle_r	hip_flexion_l	hip_adduction_l	hip_rotation_l	knee_angle_l	knee_angle_l_beta	ankle_angle_l	subtalar_angle_l	mtp_angle_l	lumbar_extension	lumbar_bending	lumbar_rotation	arm_flex_r	arm_add_r	arm_rot_r	elbow_flex_r	pro_sup_r	arm_flex_l	arm_add_l	arm_rot_l	elbow_flex_l	pro_sup_l
      0.00000000	     -4.27383833	     -0.17119689	    -18.27703136	      1.02410470	      0.92428556	     -0.02379131	     30.60997961	     -0.78709477	      9.26474642	     17.73830575	      0.30959184	     -8.83350515	    -26.51508229	     -5.84182044	      2.62624335	      3.79502283	      6.37881544	      5.13439772	      0.08961215	     13.94412077	     -4.54214270	     -5.84182044	     -1.46808162	     -2.66552119	     -5.44625015	     34.26230750	     10.17597044	     43.75013540	    101.67575509	     76.90415667	     49.03083663	      8.09060778	     73.84077513	    109.72655205	     77.95174674
      0.01666670	     -4.41115602	     -0.33815533	    -17.44760536	      1.02352396	      0.91661581	     -0.02449040	     30.34568536	     -1.40155651	      7.65863414	     13.77872507	      0.24048412	     -2.78967350	    -17.16844015	     -6.40808429	      4.35729124	      3.74376503	      7.22373249	      8.85480269	      0.15454546	     15.74823863	     -5.53254539	     -6.40808429	     -2.82152932	     -2.18656176	     -3.83363084	     34.25472289	      6.81933996	     46.29867205	    108.84025657	     90.47114609	     51.27346699	      8.20625322	     72.74135562	    113.40842589	     93.49323253
      0.03333330	     -5.83072426	      0.10441259	    -17.11344512	      1.02412893	      0.91047320	     -0.02370648	     31.14412501	     -2.00186866	      7.05857127	      9.80901316	      0.17119958	     -0.61676084	    -13.84926739	     -6.72704888	      8.16138389	      3.93666693	      7.47192270	     13.08243845	      0.22833163	     18.85287906	     -5.54847936	     -6.72704888	     -1.18138842	     -1.62169827	     -3.70918543	     33.94782673	      7.81122302	     46.21558350	    111.66943651	     98.48548351	     50.97489301	      8.44990964	     70.80434246	    114.56931448	    100.86921921
      0.05000000	     -6.22861448	      0.08870137	    -16.83092591	      1.02355940	      0.90632267	     -0.02385113	     32.47416081	     -2.42935958	      5.75339782	     10.54217801	      0.18399572	      2.26752430	    -11.05022477	     -6.75001148	     11.02527494	      4.06415629	      7.00253314	     17.54716024	      0.30625572	     22.18689582	     -4.30360259	     -6.75001148	     -0.83259650	     -1.29176598	     -4.08268583	     33.73585709	      8.08607315	     47.28282710	    112.65648676	     99.02743450	     50.55080025	      8.22707847	     69.74676384	    114.79283962	    100.85808101
      0.06666670	     -6.28877017	      0.16787621	    -16.86982850	      1.02279988	      0.90539894	     -0.02369673	     33.88060077	     -2.67537369	      4.71024662	     12.47997078	      0.21781658	      4.14532365	     -9.16366499	     -6.85459677	     13.12938854	      4.33932856	      6.62272990	     21.33021573	      0.37228249	     24.67312935	     -4.33948065	     -6.85459677	     -0.92471917	     -1.20986843	     -4.14191351	     33.55889884	      8.44273132	     48.09978016	    112.65364841	     97.25937404	     50.27786484	      7.69627533	     68.82288710	    115.31117366	     98.38415101
      0.08333330	     -6.36860282	      0.31782661	    -16.87495673	      1.02155615	      0.89890769	     -0.02369345	     35.72337698	     -2.99657555	      3.72741381	     14.96111615	      0.26112074	      5.15793366	     -8.25708748	     -6.88961868	     15.01486510	      4.54252518	      6.13080925	     24.51686356	      0.42789999	     26.62858646	     -3.88428781	     -6.88961868	     -1.10008692	     -1.35158055	     -4.28394612	     33.97661762	      9.19281846	     48.67661020	    112.94669375	     98.33157402	     50.47409357	      7.72028513	     67.83804301	    116.06747627	     98.14447771
      0.10000000	     -5.76057170	      0.20756748	    -16.98679701	      1.02037183	      0.89967575	     -0.02352758	     36.55249583	     -3.18872760	      3.35093713	     16.89987240	      0.29495842	      4.52902563	     -8.44961367	     -6.89643338	     15.67880807	      4.72825984	      6.04858477	     26.89586467	      0.46942139	     27.56254177	     -4.17106727	     -6.89643338	     -2.12506929	     -1.43394477	     -4.07108845	     33.92720750	      9.69871805	     48.68218984	    112.90150034	     98.66714646	     50.54400346	      7.87349376	     67.27466450	    116.15102366	     98.08988079
      0.11666670	     -6.38031045	      0.84007703	    -16.99210929	      1.01944035	      0.89553144	     -0.02322518	     39.02299628	     -3.66422269	      3.34633847	     18.23654109	      0.31828769	      4.23001838	     -7.99391677	     -6.92296703	     17.81554740	      5.08782945	      5.51463670	     29.07208478	      0.50740360	     28.37145187	     -3.67730450	     -6.92296703	     -1.30124191	     -2.01297912	     -3.88591283	     33.43099062	     10.05731305	     48.76453979	    112.76417991	     99.90848443	     50.29503651	      7.76717370	     67.12214824	    116.34938602	     97.73897647
